Coordinates
version=1
nRows=16
nColumns=38
inDegrees=no

Units are S.I. units (second, meters, Newtons, ...)
If the header above contains a line with 'inDegrees', this indicates whether rotational values are in degrees (yes) or radians (no).

endheader
time	pelvis_tilt	pelvis_list	pelvis_rotation	pelvis_tx	pelvis_ty	pelvis_tz	hip_flexion_r	hip_adduction_r	hip_rotation_r	knee_angle_r	ankle_angle_r	subtalar_angle_r	mtp_angle_r	hip_flexion_l	hip_adduction_l	hip_rotation_l	knee_angle_l	ankle_angle_l	subtalar_angle_l	mtp_angle_l	lumbar_extension	lumbar_bending	lumbar_rotation	arm_flex_r	arm_add_r	arm_rot_r	elbow_flex_r	pro_sup_r	wrist_flex_r	wrist_dev_r	arm_flex_l	arm_add_l	arm_rot_l	elbow_flex_l	pro_sup_l	wrist_flex_l	wrist_dev_l
0.03	0.0753335	-0.0461853	-0.0234205	0.716906	1.06054	-0.2776	0.692766	0.00114968	-0.16906	-1.25865	0.181764	0.0999991	-0.0007745	-0.503789	-0.0338985	-0.366255	-0.320837	0.0119826	0.0999991	-0.00241058	-0.330386	0.0346498	-0.20056	-0.693583	-0.278387	-0.251951	1.62886	1.24575	0.00315353	-0.0407649	0.0344976	-0.367874	-0.10923	1.91321	1.69093	0.0955286	-0.0181185
0.04	0.0556512	-0.043997	-0.0269568	0.719645	1.06233	-0.276289	0.690399	0.00548029	-0.203442	-1.06622	0.22171	0.0999991	-0.0007745	-0.51707	-0.0325855	-0.341151	-0.329425	-0.0990485	0.0999991	-0.00241058	-0.302743	0.0325256	-0.212558	-0.718717	-0.25995	-0.262176	1.63541	1.24833	0.00315353	-0.0407649	0.0370512	-0.369073	-0.0784529	1.94362	1.71578	0.0955286	-0.0181185
0.05	0.0416041	-0.0397231	-0.029409	0.72189	1.06351	-0.275396	0.682226	0.00691217	-0.236845	-0.896425	0.255544	0.0999991	-0.0007745	-0.524849	-0.0291062	-0.31199	-0.35947	-0.186728	0.0999991	-0.00241058	-0.282937	0.028551	-0.222171	-0.736833	-0.243447	-0.270521	1.64089	1.25126	0.00315353	-0.0407649	0.0395153	-0.370567	-0.047529	1.96653	1.73857	0.0955286	-0.0181185
0.06	0.0332169	-0.0335038	-0.0307832	0.723655	1.06412	-0.274895	0.668334	0.00555521	-0.269158	-0.749579	0.283062	0.0999991	-0.0007745	-0.527216	-0.0236414	-0.279208	-0.410757	-0.251719	0.0999991	-0.00241058	-0.270993	0.0228714	-0.229362	-0.747962	-0.228945	-0.276972	1.64536	1.25451	0.00315353	-0.0407649	0.0418296	-0.372312	-0.0165436	1.98197	1.75916	0.0955286	-0.0181185
0.07	0.0305339	-0.0257732	-0.031105	0.724994	1.06427	-0.274737	0.648977	0.00176765	-0.300039	-0.626505	0.303659	0.0999991	-0.0007745	-0.524426	-0.0167611	-0.244077	-0.482547	-0.296087	0.0999991	-0.00241058	-0.266927	0.0159374	-0.23403	-0.752215	-0.216641	-0.281506	1.64898	1.25794	0.00315353	-0.0407649	0.0438129	-0.374179	0.014245	1.9901	1.77713	0.0955286	-0.0181185
0.08	0.0335243	-0.0173369	-0.0304299	0.725928	1.06404	-0.274837	0.624624	-0.0038163	-0.328967	-0.528333	0.316355	0.0999991	-0.0007745	-0.516888	-0.00949701	-0.208626	-0.573274	-0.323591	0.0999991	-0.00241058	-0.27064	0.00856702	-0.236	-0.749809	-0.206879	-0.284117	1.65206	1.26132	0.00315353	-0.0407649	0.045137	-0.375937	0.0443636	1.99112	1.79188	0.0955286	-0.0181185
0.09	0.0419135	-0.00931751	-0.0288615	0.726451	1.06344	-0.275086	0.59597	-0.0102616	-0.355178	-0.456029	0.319962	0.0999991	-0.0007745	-0.505054	-0.003278	-0.175338	-0.68044	-0.339263	0.0999991	-0.00241058	-0.281754	0.00186963	-0.235032	-0.741076	-0.200112	-0.28486	1.65497	1.26437	0.00315353	-0.0407649	0.0453431	-0.377268	0.0731437	1.9853	1.80269	0.0955286	-0.0181185
0.1	0.0550494	-0.00295214	-0.02658	0.726542	1.06246	-0.275373	0.563981	-0.0163308	-0.377467	-0.409864	0.313535	0.0999991	-0.0007745	-0.489226	0.000261238	-0.146698	-0.800702	-0.348334	0.0999991	-0.00241058	-0.29944	-0.00292879	-0.230832	-0.726431	-0.196812	-0.28388	1.65803	1.26681	0.00315353	-0.0407649	0.0439006	-0.377805	0.0997914	1.97282	1.80906	0.0955286	-0.0181185
0.11	0.0718385	0.000610448	-0.0238529	0.726187	1.061	-0.275594	0.52993	-0.0205942	-0.394125	-0.389106	0.297071	0.0999991	-0.0007745	-0.469365	-0.000408013	-0.124641	-0.930126	-0.354925	0.0999991	-0.00241058	-0.32232	-0.00473507	-0.223087	-0.706336	-0.197376	-0.281411	1.66144	1.26842	0.00315353	-0.0407649	0.0402953	-0.377186	0.123486	1.95379	1.81092	0.0955286	-0.0181185
0.12	0.0907772	0.000503926	-0.0210256	0.725403	1.0589	-0.27567	0.495358	-0.0216549	-0.40327	-0.392019	0.272242	0.0999991	-0.0007745	-0.444987	-0.00638721	-0.110109	-1.06454	-0.361093	0.0999991	-0.00241058	-0.348515	-0.00280191	-0.211505	-0.681247	-0.202061	-0.277724	1.66514	1.26914	0.00315353	-0.0407649	0.0341307	-0.375108	0.143478	1.92812	1.80887	0.0955286	-0.0181185
0.13	0.110117	-0.00372507	-0.0184867	0.724234	1.056	-0.275558	0.461892	-0.0184623	-0.403667	-0.416075	0.242836	0.0999991	-0.0007745	-0.415184	-0.0181095	-0.102847	-1.19989	-0.366675	0.0999991	-0.00241058	-0.375853	0.00315472	-0.195879	-0.651581	-0.210957	-0.273052	1.66883	1.26902	0.00315353	-0.0407649	0.0252114	-0.371375	0.159171	1.89567	1.8042	0.0955286	-0.0181185
0.14	0.128146	-0.0120859	-0.0166177	0.722728	1.05221	-0.275257	0.430916	-0.0104886	-0.395068	-0.458053	0.214626	0.0999991	-0.0007745	-0.37878	-0.035232	-0.101518	-1.3325	-0.36988	0.0999991	-0.00241058	-0.402165	0.0129313	-0.176153	-0.617701	-0.224009	-0.267521	1.67202	1.26824	0.00315353	-0.0407649	0.0135731	-0.365937	0.170157	1.85629	1.79882	0.0955286	-0.0181185
0.15	0.143409	-0.0240986	-0.0157261	0.720954	1.04757	-0.274817	0.403135	0.00223094	-0.378174	-0.513979	0.19443	0.0999991	-0.0007745	-0.334604	-0.0566522	-0.104011	-1.45918	-0.368334	0.0999991	-0.00241058	-0.425643	0.0259171	-0.152497	-0.579942	-0.241039	-0.261116	1.67418	1.26698	0.00315353	-0.0407649	-0.000566841	-0.358912	0.176216	1.81011	1.79495	0.0955286	-0.0181185
0.16	0.155006	-0.0388925	-0.0159732	0.719	1.04234	-0.274317	0.378237	0.0191158	-0.354274	-0.578981	0.188535	0.0999991	-0.0007745	-0.281791	-0.0805948	-0.107866	-1.57721	-0.360054	0.0999991	-0.00241058	-0.445058	0.0411452	-0.125375	-0.538688	-0.261771	-0.253726	1.67492	1.26537	0.00315353	-0.0407649	-0.016931	-0.350588	0.177293	1.75774	1.79472	0.0955286	-0.0181185
0.17	0.162648	-0.0552313	-0.0173138	0.716945	1.03698	-0.273831	0.354748	0.039017	-0.325133	-0.647388	0.201055	0.0999991	-0.0007745	-0.220055	-0.104783	-0.110751	-1.68422	-0.343971	0.0999991	-0.00241058	-0.459871	0.0573725	-0.0955862	-0.49448	-0.28581	-0.24527	1.67413	1.26349	0.00315353	-0.0407649	-0.0353408	-0.341415	0.173476	1.70053	1.79968	0.0955286	-0.0181185
0.18	0.166632	-0.0715586	-0.0194828	0.714837	1.03186	-0.273413	0.330198	0.0602364	-0.292811	-0.713044	0.232763	0.0999991	-0.0007745	-0.149864	-0.126645	-0.110894	-1.77808	-0.319983	0.0999991	-0.00241058	-0.470157	0.073141	-0.0642338	-0.448141	-0.312602	-0.235871	1.67213	1.26134	0.00315353	-0.0407649	-0.0558622	-0.331988	0.164979	1.64061	1.81036	0.0955286	-0.0181185
